<svg width="400" height="400" viewBox="0 0 400 400" fill="none" xmlns="http://www.w3.org/2000/svg">
<path d="M223.616 151.938L223.896 151.89C228.661 151.041 235.521 148.206 240.298 146.922C241.464 146.609 244.845 145.399 245.925 145.395C247.427 147.974 249.397 155.329 250.376 158.496L258.066 183.251L291.084 289.554L290.774 289.802C286.734 293.089 282.464 298.044 278.594 301.697C276.814 303.374 274.701 305.882 272.594 307.074C271.449 306.804 268.876 297.067 268.331 295.254L262.551 276.259C262.279 275.532 262.074 274.684 261.489 274.224C259.801 277.784 255.689 287.617 253.881 290.264C249.801 291.919 245.648 293.402 241.528 295.067C234.879 297.757 228.091 300.699 221.309 302.974C216.392 292.829 212.107 281.994 207.452 271.692C205.467 267.299 203.652 262.712 201.481 258.407C198.293 265.292 194.716 272.244 191.42 279.109C190.128 281.802 187.168 288.009 185.638 289.967C184.492 290.509 181.285 291.687 180.033 291.947C173.648 293.279 160.07 300.047 154.247 300.092C152.948 298.959 145.976 277.642 144.911 274.349C143.253 269.222 139.837 260.427 138.465 255.317C136.214 259.154 123.393 283.409 121.945 284.444C119.765 286.004 110.8 288.424 107.632 289.517L97.0342 293.172C95.8994 293.562 92.1829 294.942 91.2057 294.919C90.0902 293.882 91.9439 290.717 92.5382 289.522C93.6337 287.672 95.3764 283.749 96.4137 281.597L104.228 265.294C111.199 250.747 118.592 235.883 125.329 221.275C127.797 216.53 129.93 211.088 132.545 206.486C134.6 201.721 137.199 196.56 139.457 191.848C143.294 183.779 147.173 175.73 151.093 167.702C152.255 165.316 156.078 156.577 157.411 154.999C163.141 153.824 168.86 152.594 174.567 151.308C176.815 150.785 182.716 149.178 184.566 149.051C186.363 152.638 188.144 158.04 189.715 161.94L199.194 184.964C199.904 186.735 201.729 193.148 202.94 193.903L203.41 193.807C204.868 191.403 207.281 185.795 208.545 183.056L217.853 162.863C219.255 159.833 221.567 154.254 223.616 151.938ZM187.056 229.231C187.506 228.274 187.87 227.919 187.788 226.989C181.433 225.82 172.347 225.722 165.727 224.886C163.199 224.567 160.176 224.626 157.705 224.054C159.225 226.5 161.815 234.168 162.993 237.369L170.908 258.667C171.192 259.574 171.204 259.712 171.736 260.474L172.21 260.654C172.803 260.277 172.856 259.819 173.089 259.137L187.056 229.231ZM247.411 234.75C247.794 234.11 247.804 234.051 248.04 233.332L247.762 232.892L246.562 232.63C240.549 232.189 229.834 231.127 224.126 230.211L224.265 230.454C226.259 234.019 235.996 260.069 236.734 260.677C236.984 260.484 237.411 260.182 237.528 259.872C240.718 251.489 244.345 243.175 247.411 234.75ZM170.768 189.165C170.099 191.361 168.244 195.851 167.256 198.122C165.567 202.005 163.243 208.434 161.264 211.985C165.25 212.233 179.026 212.481 181.769 213.169C181.536 212.074 179.335 207.326 178.754 205.989C176.444 200.678 174 195.417 171.789 190.058C171.715 189.72 171.633 189.626 171.476 189.308L170.768 189.165ZM242.852 214.066L236.705 195.143C236.129 193.364 233.948 186.962 233.845 185.54L233.542 185.046L233.202 185.152C230.133 190.574 227.658 197.375 224.776 202.968C224.339 203.816 222.637 207.373 222.189 207.974C221.386 209.664 220.391 211.924 219.54 213.534L219.853 213.797C220.923 213.322 226.371 213.7 227.582 213.919C232.819 214.282 237.435 214.322 242.695 214.856L242.852 214.066Z" fill="#16056D"/>
<path d="M226.638 159.699C226.114 158.09 224.917 154.842 224.777 153.371C226.031 152.051 242.434 147.189 245.282 146.32C247.368 152.417 268.672 218.428 268.574 221.046C266.399 223.748 253.799 229.718 250.159 231.206L249.646 230.465C248.924 230.643 248.628 230.618 248.071 231.042C247.873 229.098 245.19 221.291 244.452 219.048L245.574 217.935C244.973 216.333 244.399 214.424 243.86 212.778C243.54 213.221 243.236 213.685 242.85 214.068L236.703 195.145C236.127 193.366 233.946 186.964 233.844 185.542L233.54 185.048L233.2 185.154C232.425 185.097 232.523 184.987 231.772 184.453C232.237 183.24 232.575 182.778 232.496 181.416C231.808 180.572 230.991 177.221 230.676 176.057C230.229 173.78 226.884 163.422 225.892 161.503L225.589 160.602C225.821 160.337 226.345 159.939 226.638 159.699Z" fill="#FEFEFE"/>
<path d="M234.647 184.109C236.674 190.596 238.751 197.066 240.877 203.521C241.711 206.084 243.226 210.267 243.86 212.777C243.54 213.22 243.236 213.684 242.85 214.066L236.703 195.143C236.127 193.365 233.946 186.962 233.844 185.54C234.057 185.026 234.356 184.589 234.647 184.109Z" fill="#16056D"/>
<path d="M225.59 160.603C225.821 160.337 226.346 159.94 226.638 159.699C228.8 166.409 231.205 174.493 233.654 181.004L232.496 181.416C231.809 180.572 230.992 177.222 230.677 176.058C230.23 173.78 226.885 163.423 225.892 161.504L225.59 160.603Z" fill="#16056D"/>
<path d="M245.574 217.934C246.88 222.127 248.238 226.304 249.647 230.464C248.925 230.641 248.629 230.616 248.071 231.04C247.874 229.097 245.19 221.289 244.453 219.047L245.574 217.934Z" fill="#16056D"/>
<path d="M233.655 181.004C233.982 182.295 234.134 182.867 234.648 184.112C234.358 184.591 234.058 185.029 233.845 185.543L233.542 185.049L233.201 185.155C232.426 185.098 232.524 184.988 231.773 184.454C232.238 183.241 232.576 182.779 232.497 181.417L233.655 181.004Z" fill="#16056D"/>
<path d="M244.821 177.094C246.051 177.808 247.195 180.985 248.219 182.174C249.77 183.973 252.138 184.258 254.268 184.538C252.676 187.758 251.871 190.28 251.523 193.871C251.406 195.068 251.366 197.355 250.718 198.203C248.05 193.644 246.963 191.036 241.453 190.085C243.953 186.826 244.987 184.51 244.97 180.275C244.966 179.184 244.772 178.453 244.813 177.277L244.821 177.094Z" fill="#713DFF"/>
<path d="M237.457 155.074C238.795 155.496 239.183 157.452 240.185 158.798C242.293 161.63 243.954 161.767 247.054 162.39C244.023 167.387 244.655 170.53 243.77 175.711L243.732 175.922C239.774 171.957 241.489 169.214 234.199 167.917C237.697 163.072 238.123 160.863 237.457 155.074Z" fill="#713DFF"/>
<path d="M252.388 200.418C253.14 200.945 254.9 204.371 255.678 205.333C257.33 207.378 259.413 207.533 261.798 207.879C259.943 211.246 259.118 214.198 258.823 218.053C258.745 219.071 258.758 220.37 258.265 221.236C257.458 220.516 255.915 217.848 255.038 216.787C253.033 214.361 251.838 213.901 248.902 213.483C250.433 211.374 251.945 209.135 252.35 206.49C252.628 204.679 252.035 201.962 252.388 200.418Z" fill="#713DFF"/>
<path d="M128.766 222.253L128.958 221.897C129.788 221.601 131.148 221.809 132.087 221.876C137.654 222.605 143.59 222.807 149.194 223.361C151.434 223.582 154.607 223.684 156.721 224.105C158.73 230.602 161.994 238.39 164.34 244.891C165.448 247.959 168.294 255.909 169.578 258.531C170.03 259.816 170.551 261.489 171.231 262.626C170.348 265.316 167.36 271.234 166.047 273.986L155.677 295.474C155.32 296.199 155.101 296.809 154.459 297.074C153.481 295.279 150.44 285.389 149.61 282.924L138.71 251.171L128.766 222.253Z" fill="#FEFEFE"/>
<path d="M155.494 256.812C158.204 257.895 164.57 262.84 165.804 265.6C167.562 269.53 166.331 270.703 162.876 272.388C162.864 273.353 163.921 273.777 164.315 275.367C163.984 276.195 164.252 275.865 163.418 276.335L159.381 277.81C159.177 276.155 159.027 274.497 158.93 272.832C156.86 274.097 154.215 274.565 153.177 271.783C151.642 267.67 153.859 260.75 155.494 256.812Z" fill="#16056D"/>
<path d="M147.286 231.91C149.932 233.561 152.639 235.39 154.928 237.511C158.186 240.531 160.706 246.11 154.362 247.319C155.053 248.521 156.073 249.853 155.808 251.129L155.167 251.471C153.917 252.019 152.399 252.516 151.094 252.979C151.027 251.486 150.797 249.729 150.638 248.222C140.392 252.466 145.251 236.123 147.286 231.91Z" fill="#16056D"/>
<path d="M158.336 155.999C163.51 154.714 168.583 153.677 173.774 152.53C176.469 151.935 181.289 150.942 183.783 149.973C185.729 154.761 187.51 159.582 189.479 164.38C193.816 174.952 198.429 185.669 202.245 196.438L193.227 215.909C192.599 217.262 189.688 223.641 189.004 224.48C188.372 224.41 188.634 224.53 188.167 224.173C187.494 224.198 187.491 224.139 186.956 224.522C185.519 222.367 183.978 217.092 182.221 214.365L182.178 214.146L181.768 213.168C181.534 212.074 179.334 207.325 178.753 205.988C176.443 200.678 173.999 195.416 171.788 190.058C172.253 189.649 172.497 189.669 173.106 189.571L166.518 174.463C163.754 168.324 161.026 162.17 158.336 155.999Z" fill="#FEFEFE"/>
<path d="M173.108 189.57C176.124 196.201 178.97 202.909 181.941 209.56C182.328 210.424 182.721 211.281 182.986 212.193C182.293 213.063 182.303 212.9 182.18 214.146L181.769 213.168C181.536 212.074 179.335 207.325 178.754 205.988C176.444 200.677 174 195.416 171.789 190.058C172.255 189.649 172.498 189.669 173.108 189.57Z" fill="#16056D"/>
<path d="M182.986 212.195C183.78 213.863 187.934 222.779 188.168 224.175C187.495 224.2 187.492 224.141 186.957 224.524C185.52 222.369 183.979 217.095 182.222 214.368L182.18 214.148C182.303 212.903 182.293 213.065 182.986 212.195Z" fill="#16056D"/>
<path d="M183.759 190.676C190.344 190.74 186.634 200.79 185.03 203.919C184.174 203.192 183.06 202.376 182.153 201.677C179.988 199.868 174.587 195.389 178.496 192.633C179.888 191.652 180.356 192.33 181.845 192.324C182.615 191.522 182.847 191.307 183.759 190.676Z" fill="#713DFF"/>
<path d="M173.314 164.48C179.523 165.728 176.312 174.044 174.597 177.678L172.259 176.057C170.369 174.55 164.782 170.117 167.302 167.102C168.569 165.586 169.729 166.127 171.455 166.069C172.199 165.308 172.443 165.085 173.314 164.48Z" fill="#713DFF"/>
<path d="M184.493 161.185C191.225 161.039 187.543 170.761 185.875 173.903C185.177 173.243 184.187 172.532 183.411 171.935C183.066 171.635 182.723 171.333 182.382 171.029C178.24 167.336 175.143 163.378 183.118 162.352C183.348 162.322 184.061 161.621 184.277 161.404L184.493 161.185Z" fill="#713DFF"/>
<path d="M195.085 187.224C201.529 187.079 197.93 196.863 196.573 199.956L194.254 198.314C191.979 196.434 185.798 191.417 190.866 188.738C191.823 188.233 192.104 188.516 193.052 188.856C193.92 188.7 194.344 187.979 195.085 187.224Z" fill="#713DFF"/>
<path d="M250.691 232.537C254.681 231.046 257.334 229.807 261.014 227.641C263.327 226.279 267.191 223.709 269.519 222.68C274.261 237.942 278.919 253.232 283.486 268.547C285.371 274.775 287.514 282.767 289.676 288.745L273.119 305.167C269.649 296.982 267.094 284.417 263.711 275.86L263.594 276.897L263.284 276.997L262.551 276.26C262.279 275.532 262.074 274.685 261.489 274.225L260.344 273.41C261.234 271.485 261.032 271.232 260.384 269.242C260.132 267.787 257.881 261.085 257.349 259.417L250.229 237.157C250.036 236.348 250.021 236.098 249.6 235.401L248.809 235.305C248.406 235.197 247.815 234.921 247.412 234.751C247.795 234.11 247.804 234.052 248.04 233.333L247.762 232.893L246.562 232.631C246.926 231.714 246.936 232.153 246.57 231.27C247.119 231.295 247.539 231.162 248.073 231.041C248.63 230.617 248.926 230.641 249.648 230.464L250.161 231.205L250.599 231.424L250.691 232.537Z" fill="#FEFEFE"/>
<path d="M249.648 230.465L250.161 231.205L250.599 231.424L250.691 232.538C250.424 233.846 251.284 235.925 251.727 237.274L261.732 269.288L260.384 269.243C260.132 267.788 257.881 261.086 257.349 259.418L250.229 237.158C250.036 236.349 250.021 236.099 249.6 235.402L248.809 235.305C248.406 235.198 247.815 234.921 247.412 234.752C247.795 234.111 247.804 234.052 248.04 233.334L247.762 232.894L246.562 232.632C246.926 231.715 246.936 232.153 246.57 231.271C247.119 231.296 247.539 231.163 248.073 231.041C248.63 230.618 248.926 230.642 249.648 230.465Z" fill="#16056D"/>
<path d="M261.731 269.287C262.134 270.5 263.639 274.807 263.711 275.86L263.594 276.897L263.284 276.997L262.551 276.26C262.279 275.532 262.074 274.685 261.489 274.225L260.344 273.41C261.234 271.485 261.031 271.232 260.384 269.242L261.731 269.287Z" fill="#16056D"/>
<path d="M268.454 254.264C273.586 254.177 271.811 256.434 274.061 259.059C274.284 259.319 277.484 258.579 278.444 260.009C281.052 263.894 278.161 266.649 273.931 266.342L277.239 270.832C276.371 271.422 275.106 272.062 274.151 272.582C272.276 273.202 271.972 272.387 271.919 270.589C271.882 269.364 271.896 268.122 271.874 266.894C269.554 268.764 264.667 270.804 264.692 265.402C264.699 263.472 266.869 262.464 268.327 261.562C268.204 259.599 263.564 257.109 268.454 254.264Z" fill="#16056D"/>
<path d="M157.565 157.082C158.765 160.582 163.522 171.392 165.288 174.816C165.949 174.823 165.921 174.781 166.518 174.465L173.107 189.573C172.497 189.672 172.254 189.652 171.788 190.06C171.715 189.721 171.633 189.628 171.475 189.31L170.767 189.167C170.098 191.363 168.243 195.852 167.255 198.123C165.566 202.007 163.242 208.435 161.263 211.987C165.25 212.235 179.025 212.483 181.768 213.17L182.179 214.148L182.222 214.368C176.364 213.645 163.603 212.543 158.269 214.138C150.968 216.067 139.276 218.205 132.773 220.375L132.505 220.753L132.697 221.591C132.432 221.74 132.371 221.811 132.085 221.876C131.146 221.808 129.786 221.6 128.956 221.896L128.764 222.252L138.708 251.171C138.405 252.228 138.406 252.416 137.762 253.271C135.976 246.226 132.269 237.672 130.136 230.558C129.427 228.196 128.195 225.372 127.67 223.022C127.185 222.097 127.377 222.081 126.634 221.752L126.178 222.03C125.994 221.829 125.553 221.471 125.328 221.277C127.796 216.532 129.929 211.089 132.544 206.488L133.156 207.354C135.444 203.601 138.776 195.834 140.842 191.726C146.526 180.422 151.79 168.323 157.565 157.082Z" fill="#FEFEFE"/>
<path d="M125.328 221.277C127.796 216.533 129.929 211.09 132.544 206.488L133.156 207.355C131.855 211.041 129.137 215.735 127.529 219.643L157.115 212.882L157.106 213.815C157.496 213.915 157.883 214.023 158.269 214.138C150.968 216.068 139.276 218.206 132.773 220.376L132.505 220.754L132.697 221.591C132.432 221.74 132.371 221.812 132.085 221.876C131.146 221.809 129.786 221.601 128.956 221.897L128.764 222.253L138.708 251.171C138.405 252.229 138.406 252.416 137.762 253.271C135.976 246.226 132.269 237.672 130.136 230.559C129.427 228.196 128.195 225.373 127.67 223.022C127.185 222.097 127.377 222.081 126.634 221.752L126.178 222.03C125.994 221.829 125.553 221.472 125.328 221.277Z" fill="#16056D"/>
<path d="M166.519 174.465L173.108 189.573C172.498 189.672 172.255 189.652 171.789 190.06C171.716 189.721 171.634 189.628 171.476 189.31L170.768 189.167L170.587 188.856L169.655 188.732C169.854 187.943 170.031 187.835 169.805 187.216C168.979 186.816 168.933 186.83 167.994 186.814L167.727 187.091C167.769 187.954 167.895 188.412 167.488 189.123C166.637 189.382 163.799 189.08 163.113 188.482C162.943 187.65 163.626 186.508 164.01 185.668C163.577 184.81 162.549 184.951 161.772 184.349C158.078 181.485 164.021 176.688 165.289 174.816C165.95 174.823 165.922 174.781 166.519 174.465Z" fill="#16056D"/>
<path d="M159.788 212.214C162.227 207.593 164.597 200.96 166.661 196.083C167.525 194.042 168.61 190.529 169.653 188.73L170.585 188.854L170.766 189.165C170.097 191.361 168.242 195.851 167.254 198.122C165.565 202.005 163.241 208.434 161.262 211.985C165.249 212.233 179.024 212.481 181.767 213.169L182.178 214.147L182.221 214.366C176.363 213.643 163.602 212.541 158.268 214.136C157.882 214.021 157.495 213.913 157.105 213.813L157.114 212.879L159.788 212.214Z" fill="#16056D"/>
<path d="M144.639 194.902C147.029 196.333 151.298 208.436 146.369 209.774C145.558 209.994 144.738 209.899 143.82 210.35C143.293 211.233 143.488 211.812 143.48 212.98C142.325 212.966 140.913 212.771 139.738 212.641L139.078 212.396C138.152 210.952 139.868 210.378 140.031 208.895C140.099 208.274 138.2 208.439 137.275 207.452C136.613 206.758 136.284 205.812 136.374 204.857C136.665 201.403 142.034 197.091 144.639 194.902Z" fill="#16056D"/>
<path d="M155.384 172.676C156.143 173.13 157.482 175.988 157.837 176.858C158.972 179.64 160.05 182.962 158.791 185.886C157.699 188.42 155.571 187.38 154.351 187.815C153.818 188.859 153.975 189.016 154.169 190.262L153.813 190.591C152.692 190.838 151.46 190.536 150.312 190.345C149.73 190.236 149.758 190.268 149.346 189.848C149.247 188.932 150.148 187.822 150.679 186.98C150.66 185.811 149.126 186.319 148.225 185.543C143.779 181.715 153.196 174.392 155.384 172.676Z" fill="#16056D"/>
<path d="M157.954 194.676L158.563 194.853C159.835 197.355 165.501 208.665 158.49 209.532C155.175 209.942 157.273 210.302 156.155 211.796C155.103 212.066 154.385 211.841 153.306 211.656C152.419 211.42 152.69 211.608 152.06 211.004C152.053 209.992 152.524 209.693 153.111 208.623C152.485 207.593 150.832 207.583 150.214 206.564C147.863 202.69 155.393 196.512 157.954 194.676Z" fill="#16056D"/>
<path d="M125.326 221.277C125.551 221.472 125.992 221.83 126.176 222.031L126.632 221.753C127.374 222.081 127.183 222.098 127.668 223.022C128.193 225.373 129.425 228.196 130.134 230.559C132.267 237.672 135.974 246.227 137.76 253.272L127.256 272.712C125.692 275.614 123.161 280.687 121.361 283.269C115.51 285.209 109.672 287.187 103.847 289.199C101.807 289.899 94.5462 292.524 92.9307 292.639C92.8239 291.884 93.0539 291.589 93.3827 290.894C92.9822 290.492 92.8107 290.042 92.5352 289.524C93.6307 287.674 95.3734 283.752 96.4107 281.599L104.225 265.297C111.196 250.749 118.589 235.885 125.326 221.277Z" fill="#FEFEFE"/>
<path d="M125.326 221.277C125.551 221.472 125.992 221.83 126.176 222.031C121.542 232.527 115.54 244.489 110.512 254.929L93.3827 290.894C92.9822 290.492 92.8107 290.042 92.5352 289.524C93.6307 287.674 95.3734 283.752 96.4107 281.599L104.225 265.297C111.196 250.749 118.589 235.885 125.326 221.277Z" fill="#16056D"/>
<path d="M118.738 251.039C121.404 250.914 122.002 251.507 123.715 253.347C124.515 254.369 126.148 252.929 126.673 253.087C134.561 255.467 127.205 263.919 124.496 266.139C122.554 267.507 121.436 268.059 119.334 269.112C117.688 265.379 114.606 258.044 115.761 254.097C116.279 252.327 117.252 251.792 118.738 251.039Z" fill="#713DFF"/>
<path d="M188.26 229.526L188.919 229.407C189.949 231.005 192.198 236.436 193.075 238.457L200.922 256.536L190.132 278.558C188.709 281.441 186.694 285.981 185.119 288.543C182.606 289.513 157.947 297.931 156.73 297.976L156.43 297.721L156.467 297.311C161.032 288.336 165.101 278.976 169.521 269.921C170.652 267.603 171.846 265.106 172.814 262.723L173.855 260.476L173.089 259.136L187.057 229.23C187.647 229.531 187.609 229.56 188.26 229.526Z" fill="#FEFEFE"/>
<path d="M187.053 229.23C187.644 229.531 187.606 229.56 188.257 229.526C186.405 234.51 182.605 241.741 180.343 246.82C179.063 249.695 175.344 257.998 173.851 260.476L173.086 259.136L187.053 229.23Z" fill="#16056D"/>
<path d="M188.91 250.867L189.39 251.172C189.727 252.262 188.898 254.555 189.076 256.377C189.476 260.505 191.29 262.015 194.149 264.527C188.124 267.515 186.942 268.885 182.764 274.107L182.33 274.445L181.92 274.282C181.515 272.915 181.818 271.045 181.768 269.58C181.625 265.362 180.135 263.192 177.305 260.367C177.871 260.23 178.433 260.077 178.99 259.907C184.679 258.155 186.298 255.792 188.91 250.867Z" fill="#713DFF"/>
<path d="M223.622 154.301C224.198 156.363 224.943 158.543 225.589 160.6L225.891 161.501C226.884 163.42 230.229 173.777 230.676 176.055C230.991 177.219 231.808 180.569 232.495 181.413C232.574 182.776 232.236 183.238 231.771 184.45L224.125 200.399C223.681 201.325 221.224 206.32 221.068 206.953C220.528 207.931 218.65 211.396 218.455 212.288C217.462 214.451 211.389 216.395 209.031 217.378L190.57 225.053C191.772 221.954 194.21 217.08 195.669 213.945L205.678 192.519L216.579 169.069C218.804 164.28 221.159 158.929 223.622 154.301Z" fill="#FEFEFE"/>
<path d="M225.894 161.504C226.886 163.423 230.231 173.781 230.678 176.058C230.15 176.169 226.565 178.369 225.769 178.84C225.51 178.31 225.261 177.776 225.02 177.239C223.56 173.964 221.169 167.453 222.569 163.995C223.18 162.484 224.47 162.082 225.894 161.504Z" fill="#713DFF"/>
<path d="M208.674 198.71C211.834 198.554 211.618 200.076 213.438 201.506C214.4 201.15 214.846 201.011 215.847 200.797C222.793 202.445 216.737 210.448 213.649 212.972C212.261 214.116 210.67 214.955 209.108 215.849C207.87 213.733 206.739 210.557 206.073 208.157C204.921 204.006 204.312 200.835 208.674 198.71Z" fill="#713DFF"/>
<path d="M217.041 180.037C219.846 179.87 219.89 180.543 221.593 182.14C222.441 183.212 223.872 181.896 224.511 182.069C231.701 184.017 224.918 191.887 222.704 193.878C220.834 195.245 219.592 195.922 217.577 197.029C216.037 193.417 212.988 186.306 214.384 182.537C214.924 181.078 215.769 180.654 217.041 180.037Z" fill="#713DFF"/>
<path d="M248.808 235.305L249.599 235.401C250.02 236.098 250.035 236.348 250.228 237.157L257.348 259.417C257.88 261.085 260.13 267.787 260.383 269.242C261.03 271.232 261.233 271.485 260.343 273.41C258.293 277.922 255.47 284.507 253.188 288.745C251.338 289.727 244.248 292.457 242.029 293.287C236.109 295.505 228.39 299.17 222.52 300.822C231.519 279.222 239.771 256.847 248.808 235.305Z" fill="#FEFEFE"/>
<path d="M251.969 256.684L252.519 256.996C254.719 261.161 259.124 269.099 254.794 273.244C253.409 274.571 252.309 272.941 250.774 274.194C250.279 275.241 250.446 276.379 250.479 277.579C249.079 277.401 247.682 277.196 246.289 276.966L245.439 276.601C244.792 274.854 246.566 274.529 246.942 272.621C245.838 271.331 244.279 273.754 242.359 268.674C243.542 263.501 247.929 259.926 251.969 256.684Z" fill="#16056D"/>
<path d="M243.86 212.777C244.399 214.423 244.973 216.332 245.574 217.934L244.453 219.047C245.19 221.29 247.873 229.097 248.071 231.041C247.537 231.163 247.117 231.296 246.568 231.271C245.034 230.933 238.606 230.44 236.766 230.262C226.984 229.342 217.208 228.372 207.437 227.352C205.235 227.127 194.389 226.349 193.113 225.538C194.348 224.726 199.785 222.574 201.508 221.93C206.531 220.054 214.138 216.034 219.006 214.759L218.752 214.47C219.569 214.295 219.192 214.47 219.851 213.798C220.922 213.323 226.369 213.701 227.581 213.92C232.817 214.283 237.433 214.323 242.694 214.857L242.851 214.067C243.236 213.684 243.54 213.22 243.86 212.777Z" fill="#FEFEFE"/>
<path d="M243.861 212.777C244.4 214.423 244.974 216.332 245.575 217.934L244.454 219.047C244.211 217.947 243.78 216.974 243.366 215.925C238.317 215.568 232.627 215.609 227.656 215.073C224.829 214.874 221.856 214.855 219.007 214.759L218.754 214.47C219.571 214.295 219.193 214.47 219.853 213.798C220.923 213.323 226.371 213.701 227.582 213.92C232.819 214.283 237.435 214.323 242.695 214.857L242.852 214.067C243.238 213.684 243.542 213.22 243.861 212.777Z" fill="#16056D"/>
<path d="M158.269 214.135C163.604 212.54 176.364 213.642 182.222 214.365C183.979 217.092 185.52 222.367 186.957 224.521L186.887 224.96L186.5 225.2C183.779 225.391 133.837 220.789 132.773 220.373C139.277 218.203 150.968 216.065 158.269 214.135Z" fill="#FEFEFE"/>
<path d="M169.574 258.53C170.082 258.38 170.417 258.517 170.905 258.667C171.189 259.575 171.201 259.712 171.733 260.475L172.208 260.655C172.8 260.277 172.854 259.82 173.086 259.137L173.851 260.477L172.81 262.725C172.323 262.595 172.345 262.622 171.845 262.735L171.44 263.495L171.228 262.625C170.547 261.487 170.027 259.815 169.574 258.53Z" fill="#16056D"/>
<path d="M189.918 227.059C198.541 228.474 208.276 228.541 217.012 229.659C218.881 229.898 220.494 229.846 222.381 230.342C223.526 231.091 234.69 259.232 236.08 262.867C235.253 265.772 233.504 269.815 232.34 272.702L225.994 288.492C224.666 291.58 222.531 296.58 221.576 299.675C219.02 294.807 190.039 228.673 189.918 227.059Z" fill="#FEFEFE"/>
<path d="M203.623 238.52C207.072 238.269 206.272 238.758 207.687 241.127C208.752 242.907 213.704 241.046 212.046 245.737C211.627 246.922 210.112 247.253 209.02 247.629C208.003 249.016 210.283 248.881 210.428 250.641C210.005 251.438 209.424 251.571 208.575 251.953C207.673 252.383 207.503 252.598 206.694 251.971C206.308 251.003 206.48 249.555 206.516 248.455C204.453 249.389 201.303 250.726 200.975 246.613C200.896 245.626 202.638 244.672 203.406 243.899C203.795 241.681 200.742 241.319 203.623 238.52Z" fill="#16056D"/>
<path d="M225.265 255.215C227.02 255.275 228.006 255.567 228.497 257.222C229.03 259.352 231.056 258.407 232.048 259.08C235.72 261.565 232.531 263.93 229.86 264.63C230.49 265.69 231.253 266.632 232.005 267.61C231.207 268.155 230.434 268.52 229.577 268.96C228.567 269.187 228.716 269.332 228.019 268.965C227.503 268.052 227.704 266.45 227.737 265.307C225.548 266.31 222.438 267.355 222.246 263.472C222.278 262.447 223.111 262.01 223.766 261.537C226.732 259.39 221.09 258.525 225.265 255.215Z" fill="#16056D"/>
<path d="M216.741 233.207C220.744 233.346 218.97 235.907 221.012 236.676C221.904 237.012 225.111 236.475 224.989 239.668C224.207 241.681 222.836 241.68 221.407 242.826C221.914 243.924 222.51 244.725 223.194 245.717L220.837 246.931C219.745 247.151 220.049 247.264 219.281 246.828C218.794 245.929 218.957 244.282 218.971 243.164C216.926 244.241 215.384 245.111 213.517 243.072C212.764 240.513 215.718 239.433 215.952 238.613C216.387 237.083 212.781 235.56 216.741 233.207Z" fill="#16056D"/>
<path d="M212.424 260.518C217.278 260.203 215.175 263.395 217.374 263.95C219.139 264.395 221.193 263.9 221.04 267.275C220.99 268.375 218.406 269.52 217.648 269.953C217.856 270.89 218.909 271.985 219.559 272.793L217.374 274.013C216.323 274.425 216.422 274.488 215.612 274.17C215.208 273.493 215.221 273.43 215.213 272.635L215.175 270.195C213.094 271.548 210.391 272.795 209.683 269.098C209.456 267.913 211.359 266.755 212.171 265.94C212.542 263.625 209.554 263.418 212.424 260.518Z" fill="#16056D"/>
<path d="M283.804 106.125C284.129 104.673 285.707 104.608 287.014 104.679C290.534 104.869 294.384 104.861 297.869 105.211C302.552 105.196 311.322 105.243 315.889 105.536C316.232 111.482 316.044 118.93 315.994 124.974C317.467 125.195 319.127 125.409 320.564 125.713C327.752 127.457 331.859 128.576 334.469 136C336.587 143.051 337.022 145.092 341.512 150.969C343.624 150.172 345.582 149.534 347.774 150.546C353.497 153.188 380.699 177.093 385.922 182.833C387.429 184.489 388.649 186.09 389.402 188.221C390.192 190.458 390.014 192.33 389.394 194.58L388.462 193.835C387.439 195.189 386.867 195.804 385.657 197.011C385.287 197.47 384.484 198.402 384.214 198.863L382.642 200.831C382.902 201.501 382.834 201.655 383.314 202.054C382.074 203.641 379.442 206.633 377.974 208.084C375.024 210.997 370.012 217.902 366.392 219.195C366.642 218.734 366.569 218.472 366.552 217.936C365.297 218.05 364.987 218.153 363.989 217.463L363.024 216.928C360.889 215.333 358.484 212.416 356.874 210.271L356.239 209.463L353.724 206.185L350.352 201.644L349.564 200.587L344.547 193.993L343.917 193.236C342.599 191.24 340.349 188.433 338.862 186.452L338.102 185.549C337.649 184.756 334.684 180.951 333.959 179.963L333.277 179.223C332.192 177.628 330.949 176.062 329.769 174.528L329.157 173.379L328.307 172.396C327.379 170.984 326.757 169.447 325.774 168.093L325.569 168.568L324.662 168.637C324.232 166.082 324.817 165.184 326.534 163.378C322.252 160.256 319.517 159.215 314.954 156.804C315.167 158.327 315.004 162.626 314.534 164.024C313.222 164.909 301.749 164.41 299.554 164.222C294.579 163.843 285.427 164.059 280.292 164.213C280.184 162.219 280.497 158.646 280.627 156.568L281.459 143.415C281.814 137.851 282.212 126.053 282.974 120.965C282.912 117.431 283.592 109.997 283.804 106.125Z" fill="#16056D"/>
<path d="M283.804 106.125C284.129 104.673 285.707 104.608 287.014 104.679C290.534 104.869 294.384 104.861 297.869 105.211C302.552 105.196 311.322 105.243 315.889 105.536C316.232 111.482 316.044 118.93 315.994 124.974C317.467 125.195 319.127 125.409 320.564 125.713L320.272 127.128C318.622 126.82 317.207 126.502 315.524 126.561C316.174 129.08 315.559 138.006 315.504 141.159C315.267 141.382 315.029 141.609 314.797 141.839L314.509 141.61C314.467 140.824 314.437 140.037 314.424 139.249C314.329 140.872 314.267 143.083 314.082 144.653C311.662 144.747 306.174 145.259 304.217 144.675C303.072 144.242 302.067 144.096 301.482 143.201L301.502 142.89C301.664 140.325 299.982 137.924 297.344 137.782C294.729 138.915 295.817 142.015 295.689 144.084C294.192 144.418 292.874 144.405 291.917 145.747C290.567 147.644 292.414 150.993 294.624 150.233C295.874 150.436 295.644 150.211 296.439 150.934C296.749 152.095 296.144 153.893 296.012 155.232C297.709 155.061 299.142 154.895 300.822 154.612C300.659 153.906 300.247 152.803 300.499 152.294C302.222 152.5 311.839 155.739 313.807 156.525C313.644 158.79 313.452 160.989 313.489 163.262C308.407 163.134 303.324 163.057 298.239 163.03C298.874 163.306 299.109 163.692 299.554 164.222C294.579 163.843 285.427 164.059 280.292 164.213C280.184 162.219 280.497 158.646 280.627 156.568L281.459 143.415C281.814 137.851 282.212 126.053 282.974 120.965C282.912 117.431 283.592 109.997 283.804 106.125Z" fill="#FEFEFE"/>
<path d="M282.974 120.962L283.809 120.605C283.937 121.001 284.024 121.28 284.117 121.684C283.059 134.727 282.122 149.813 281.492 162.911C287.552 162.605 292.382 162.969 298.239 163.027C298.874 163.303 299.109 163.689 299.554 164.219C294.579 163.84 285.427 164.056 280.292 164.21C280.184 162.216 280.497 158.643 280.627 156.565L281.459 143.412C281.814 137.848 282.212 126.05 282.974 120.962Z" fill="#16056D"/>
<path d="M283.805 106.125C284.13 104.673 285.707 104.608 287.015 104.679C290.535 104.869 294.385 104.861 297.87 105.211C302.552 105.196 311.322 105.243 315.89 105.536C316.232 111.482 316.045 118.93 315.995 124.974C317.467 125.195 319.127 125.409 320.565 125.713L320.272 127.128C318.622 126.82 317.207 126.502 315.525 126.561L315.232 126.592C314.57 125.438 315.42 110.162 314.917 106.986C307.377 106.361 297.627 106.427 289.79 106.117C288.392 106.036 285.885 105.685 284.84 106.386C284.352 106.321 284.272 106.286 283.805 106.125Z" fill="#16056D"/>
<path d="M314.917 106.984C315.419 110.16 314.569 125.436 315.232 126.59L315.524 126.559C316.174 129.078 315.559 138.004 315.504 141.157C315.267 141.38 315.029 141.607 314.797 141.837L314.509 141.608C314.467 140.822 314.437 140.035 314.424 139.247C314.379 129.959 315.037 120.558 314.784 111.24C314.747 109.883 314.759 108.319 314.917 106.984Z" fill="#16056D"/>
<path d="M283.807 106.125C284.274 106.286 284.354 106.321 284.842 106.386C284.862 109.125 284.507 119.018 284.119 121.688C284.027 121.283 283.939 121.004 283.812 120.609L282.977 120.965C282.914 117.431 283.594 109.997 283.807 106.125Z" fill="#16056D"/>
<path d="M296.791 113.977C297.093 113.967 297.396 113.966 297.698 113.974C301.213 114.037 301.326 116.613 301.221 119.386L301.446 119.453C304.566 120.411 307.051 122.239 303.471 125.472C302.523 126.326 301.006 126.266 299.786 125.996C298.688 127.211 300.823 128.287 300.498 129.985C299.758 130.725 299.916 130.499 298.706 130.766L297.058 130.947C295.063 130.123 296.616 126.981 297.116 125.277C295.868 125.907 293.786 126.731 292.741 125.726C288.998 122.124 293.286 120.343 295.928 119.831C294.928 117.239 294.811 115.942 296.791 113.977Z" fill="#16056D"/>
<path d="M320.565 125.711C327.752 127.455 331.86 128.574 334.47 135.998L332.867 135.769C334.887 142.292 335.872 146.346 340.567 151.776C336.61 154.678 330.677 159.007 327.412 162.588C324.87 160.663 321.73 158.553 318.827 157.258C311.88 154.16 304.587 152.196 297.355 149.933C296.76 149.747 296.332 149.371 295.957 148.882C298.367 146.77 300.707 146.705 303.74 146.467C304.05 145.904 304.102 145.311 304.217 144.673C306.175 145.257 311.662 144.745 314.082 144.651C314.267 143.081 314.33 140.87 314.425 139.247C314.437 140.035 314.467 140.822 314.51 141.608L314.797 141.837C315.03 141.607 315.267 141.38 315.505 141.157C315.56 138.004 316.175 129.078 315.525 126.559C317.207 126.5 318.622 126.818 320.272 127.126L320.565 125.711Z" fill="#FEFEFE"/>
<path d="M314.423 139.246C314.436 140.034 314.466 140.821 314.508 141.607L314.796 141.836C315.028 141.606 315.266 141.379 315.503 141.156L315.526 144.504C316.491 144.488 319.883 144.262 320.438 144.668C318.791 146.117 315.478 145.836 313.393 145.901C310.343 145.995 306.733 146.662 303.738 146.465C304.048 145.903 304.101 145.31 304.216 144.671C306.173 145.255 311.661 144.744 314.081 144.65C314.266 143.079 314.328 140.869 314.423 139.246Z" fill="#16056D"/>
<path d="M320.566 125.711C327.753 127.455 331.861 128.574 334.471 135.998L332.868 135.769C330.456 129.691 326.251 128.305 320.273 127.126L320.566 125.711Z" fill="#16056D"/>
<path d="M385.617 184.281C387.62 186.72 389.587 190.255 388.527 193.515L388.462 193.835C387.44 195.189 386.868 195.804 385.658 197.011C385.288 197.47 384.485 198.402 384.215 198.863L382.642 200.831C382.902 201.501 382.835 201.655 383.315 202.054C382.075 203.641 379.443 206.633 377.975 208.084C375.025 210.997 370.012 217.902 366.392 219.195C366.642 218.734 366.57 218.472 366.552 217.936C365.297 218.05 364.987 218.153 363.99 217.463L363.025 216.928C360.89 215.333 358.485 212.416 356.875 210.271C358.808 208.85 361.055 206.116 362.788 204.372C367.778 199.353 372.925 194.625 378.42 190.168C380.748 188.281 383.485 186.328 385.617 184.281Z" fill="#C846F9"/>
<path d="M363.988 217.459C364.913 216.921 369.158 211.969 370.256 210.924C375.376 206.046 379.853 201.078 385.656 197.008C385.286 197.467 384.483 198.399 384.213 198.86L382.641 200.828C382.901 201.498 382.833 201.652 383.313 202.05C382.073 203.638 379.441 206.629 377.973 208.08C375.023 210.993 370.011 217.899 366.391 219.192C366.641 218.731 366.568 218.469 366.551 217.933C365.296 218.047 364.986 218.15 363.988 217.459Z" fill="#C846F9"/>
<path d="M382.641 200.828C382.901 201.498 382.833 201.652 383.313 202.051C382.073 203.638 379.441 206.63 377.973 208.081C375.023 210.994 370.011 217.899 366.391 219.193C366.641 218.731 366.568 218.47 366.551 217.933C366.843 217.558 368.466 216.431 369.018 215.871C373.766 211.061 377.913 205.666 382.641 200.828Z" fill="#16056D"/>
<path d="M388.526 193.512L388.461 193.832C387.438 195.186 386.866 195.801 385.656 197.008C379.853 201.078 375.376 206.047 370.256 210.924C369.158 211.969 364.913 216.921 363.988 217.46L363.023 216.925C364.836 213.794 385.151 194.471 388.526 193.512Z" fill="#FEFEFE"/>
<path d="M377.221 176.355L378.251 177.295C379.956 178.617 383.769 182.775 384.956 183.465L385.619 184.28C383.486 186.327 380.749 188.28 378.421 190.166C372.926 194.624 367.779 199.352 362.789 204.37C361.056 206.114 358.809 208.848 356.876 210.27L356.241 209.462L353.726 206.184L350.354 201.643L349.566 200.586C352.231 198.199 355.486 194.675 358.306 192.034C364.286 186.428 370.604 181.192 377.221 176.355Z" fill="#C846F9"/>
<path d="M356.238 209.462C362.941 201.682 376.528 189.396 384.953 183.465L385.616 184.28C383.483 186.327 380.746 188.28 378.418 190.166C372.923 194.624 367.776 199.352 362.786 204.37C361.053 206.114 358.806 208.848 356.873 210.27L356.238 209.462Z" fill="#FEFEFE"/>
<path d="M377.221 176.355L378.251 177.295C369.599 183.059 357.591 193.948 350.354 201.643L349.566 200.586C352.231 198.199 355.486 194.675 358.306 192.034C364.286 186.428 370.604 181.192 377.221 176.355Z" fill="#FEFEFE"/>
<path d="M370.6 170.488L371.355 171.117C373.273 172.823 375.358 174.612 377.22 176.357C370.603 181.194 364.285 186.43 358.305 192.035C355.485 194.676 352.23 198.2 349.565 200.588L344.548 193.993L343.918 193.237C350.27 186.818 362.898 175.107 370.6 170.488Z" fill="#C846F9"/>
<path d="M370.6 170.488L371.355 171.117C370.333 172.493 361.16 178.862 358.94 180.939C356.558 183.169 353.085 185.87 350.6 188.369C349.475 189.5 345.665 193.241 344.548 193.993L343.918 193.237C350.27 186.818 362.898 175.107 370.6 170.488Z" fill="#FEFEFE"/>
<path d="M363.422 164.129L363.917 164.631C366.044 166.445 368.589 168.554 370.599 170.485C362.897 175.104 350.269 186.815 343.917 193.233C342.599 191.237 340.349 188.43 338.862 186.449L338.102 185.546C340.567 183.431 342.962 180.873 345.369 178.632C349.347 174.961 353.474 171.454 357.739 168.12C359.004 167.129 362.032 164.754 363.422 164.129Z" fill="#C846F9"/>
<path d="M363.422 164.129L363.917 164.631C363.369 165.582 351.842 174.586 349.999 176.198C347.797 178.114 345.644 180.087 343.544 182.116C342.347 183.27 340.122 185.528 338.862 186.449L338.102 185.546C340.567 183.431 342.962 180.873 345.369 178.632C349.347 174.961 353.474 171.454 357.739 168.12C359.004 167.129 362.032 164.754 363.422 164.129Z" fill="#FEFEFE"/>
<path d="M333.277 179.221C337.545 174.362 351.587 162.073 356.967 158.719L357.69 159.406C358.6 160.178 362.555 163.604 363.422 164.13C362.032 164.755 359.005 167.131 357.74 168.122C353.475 171.456 349.347 174.963 345.37 178.634C342.962 180.875 340.567 183.433 338.102 185.547C337.65 184.755 334.685 180.95 333.96 179.962L333.277 179.221Z" fill="#C846F9"/>
<path d="M333.277 179.221C337.545 174.362 351.587 162.073 356.967 158.719L357.69 159.406C356.35 160.778 353.887 162.533 352.3 163.755C349.482 165.886 346.745 168.119 344.09 170.447C341.757 172.518 336.022 178.699 333.96 179.962L333.277 179.221Z" fill="#FEFEFE"/>
<path d="M328.309 172.396C333.419 167.446 344.351 156.794 350.364 153.48L351.166 154.326C352.646 155.284 355.886 158.123 356.969 158.719C351.589 162.074 337.546 174.363 333.279 179.222C332.194 177.627 330.951 176.062 329.771 174.527L329.159 173.378L328.309 172.396Z" fill="#C846F9"/>
<path d="M328.309 172.396C333.419 167.446 344.351 156.794 350.364 153.48L351.166 154.326C343.346 160.277 336.021 166.288 329.159 173.378L328.309 172.396Z" fill="#FEFEFE"/>
<path d="M325.773 168.09C325.776 167.283 325.898 166.32 326.403 165.667C330.323 160.606 339.478 152.474 345.548 150.91C348.383 151.804 348.331 152.585 350.361 153.478C344.348 156.792 333.416 167.444 328.306 172.393C327.378 170.981 326.756 169.444 325.773 168.09Z" fill="#C846F9"/>
<path d="M81.6397 179.385C86.5014 182.23 86.3144 183.398 83.4082 188.012C82.0644 190.145 80.6109 192.42 79.2889 194.574C72.5119 205.477 66.6679 216.933 61.8194 228.82C59.7319 233.895 57.6599 241.486 55.2122 245.998C54.2754 247.724 52.3742 249.648 50.4304 250.14C44.1094 251.742 19.4687 236.67 13.1284 232.551C11.7529 231.658 10.4716 230.409 10.1595 228.734C9.75661 226.572 10.9212 224.411 12.0826 222.67C14.3514 219.271 16.9216 215.998 19.3376 212.698C28.5664 199.856 38.6524 187.652 49.5267 176.17C51.6534 173.914 55.6219 168.887 58.3819 168.34C59.7919 169.262 60.1584 168.204 61.7404 168.973C66.1577 170.388 75.9544 176.339 80.5819 178.748C80.7352 178.838 81.5609 179.308 81.6397 179.385Z" fill="#16056D"/>
<path d="M58.0988 169.403C59.1981 169.343 60.0913 169.498 61.1141 169.89C64.2893 171.108 83.3418 180.278 84.0561 183.217C84.5003 185.045 78.6871 193.179 77.6111 194.913C71.0993 205.592 65.4641 216.782 60.7606 228.371C58.6103 233.647 56.8385 239.057 54.6885 244.302C51.734 251.511 45.4558 249.095 40.362 246.367C34.9538 244.12 13.4328 232.462 10.6719 228.196C12.3823 223.683 16.468 218.623 19.3811 214.644C28.9981 201.269 39.4951 188.549 50.8026 176.568C52.4951 174.763 56.1516 170.66 58.0988 169.403Z" fill="#713DFF"/>
<path d="M63.7116 121.43C73.1811 116.388 83.5181 112.039 92.9011 107.047C94.9566 109.631 97.6368 114.742 99.3801 117.801C100.889 120.448 103.396 124.595 104.646 127.25C106.497 130.205 108.309 133.588 110.001 136.665C114.182 144.162 118.52 152.75 122.77 160.017C117.417 164.824 102.588 174.741 96.0566 178.436C94.3433 176.144 93.2613 174.131 91.7258 171.85C87.2861 175.264 85.9301 175.079 81.6406 179.385C81.5618 179.309 80.7361 178.839 80.5828 178.749C75.9553 176.34 66.1586 170.389 61.7413 168.974C60.1593 168.204 59.7928 169.263 58.3828 168.34C59.2511 168.3 59.6161 168.371 60.3143 167.922C63.9098 163.592 55.3628 155.9 65.4078 145.824C67.7803 143.318 70.3046 140.96 72.9661 138.763C70.0428 134.175 66.1771 126.42 63.7116 121.43Z" fill="#FEFEFE"/>
<path d="M66.5198 146.59C68.8456 144.303 71.2136 142.059 73.6231 139.859C76.8588 146.344 80.7591 152.62 84.2718 158.95C81.6626 160.331 78.1421 161.84 76.1726 163.82L76.4886 163.745C82.8353 162.187 102.321 149.622 106.28 151.883C106.899 153.457 92.6983 169.372 90.4966 171.194C87.3651 173.785 83.2593 174.997 80.5828 178.748C75.9553 176.338 66.1586 170.388 61.7413 168.973C60.1593 168.203 59.7928 169.262 58.3828 168.339C59.2511 168.299 59.6161 168.37 60.3143 167.921C63.9098 163.591 55.3628 155.899 65.4078 145.823L66.2858 145.909L66.5198 146.59Z" fill="#FEFEFE"/>
<path d="M65.4078 145.824L66.2858 145.91L66.5198 146.591C57.0426 156.663 65.1531 159.841 61.7413 168.974C60.1593 168.204 59.7928 169.263 58.3828 168.34C59.2511 168.3 59.6161 168.371 60.3143 167.922C63.9098 163.592 55.3628 155.9 65.4078 145.824Z" fill="#16056D"/>
<path d="M103.467 127.835L104.645 127.25C106.495 130.204 108.308 133.587 109.999 136.664C114.18 144.162 118.518 152.75 122.768 160.016C117.415 164.823 102.586 174.74 96.055 178.436C94.3417 176.143 93.2597 174.131 91.7242 171.85C87.2845 175.264 85.9285 175.078 81.639 179.385C81.5602 179.308 80.7345 178.838 80.5812 178.748C83.2577 174.997 87.3635 173.786 90.495 171.195C92.6967 169.373 106.897 153.458 106.278 151.884C102.319 149.623 82.8337 162.188 76.487 163.746L76.171 163.821C78.1405 161.841 81.661 160.332 84.2702 158.95C80.7575 152.62 76.8572 146.345 73.6215 139.86C71.212 142.06 68.844 144.304 66.5182 146.591L66.2842 145.909L65.4062 145.824C67.7787 143.318 70.303 140.96 72.9645 138.763L73.8205 137.933C77.405 144.533 82.0092 152.024 85.3362 158.423C88.161 157.2 92.5775 154.955 95.2922 153.461C96.5495 153.148 100.158 151.459 101.307 150.788C103.131 150.477 105.694 149.878 107.259 150.984C108.471 153.486 105.276 155.886 104.076 157.872C102.843 158.914 101.781 160.144 100.931 161.517C98.2627 164.553 95.5955 168.059 92.767 170.868C94.077 172.891 95.1472 174.681 96.3402 176.775C99.6977 174.491 103.323 172.46 106.713 170.175C111.608 166.877 116.297 163.414 121.04 159.905C116.984 152.134 112.698 144.517 108.536 136.807C108 136.165 104.098 128.978 103.467 127.835Z" fill="#16056D"/>
<path d="M63.7109 121.43C73.1804 116.388 83.5174 112.039 92.9004 107.047C94.9559 109.631 97.6362 114.742 99.3794 117.801C100.888 120.448 103.395 124.595 104.646 127.25L103.468 127.836L92.5064 108.593C87.1299 111.266 81.7369 113.907 76.3282 116.514C73.1692 118.041 68.3047 120.288 65.3302 122.062C67.9499 126.253 71.4252 133.376 73.8214 137.933L72.9654 138.763C70.0422 134.175 66.1764 126.42 63.7109 121.43Z" fill="#16056D"/>
<path d="M94.2344 144.102C97.5849 147.423 95.9579 147.593 101.307 150.788C100.158 151.459 96.5496 153.148 95.2924 153.462C95.8401 148.882 95.2179 148.502 94.2344 144.102Z" fill="#713DFF"/>
<path d="M104.075 157.871C104.152 158.959 104.605 163.219 104.287 163.987C103.006 164.092 102.176 162.157 100.93 161.516C101.78 160.143 102.842 158.913 104.075 157.871Z" fill="#713DFF"/>
<path d="M82.8473 120.852C83.817 121.183 85.2263 123.218 86.0088 124.146C88.0398 126.554 91.1757 126.631 94.154 126.814C93.477 128.833 92.7213 131.196 92.4788 133.329C92.2875 135.012 93.123 138.967 92.411 140.294C87.5833 136.41 88.3812 134.337 81.125 134.128C84.1992 128.857 84.2373 126.673 82.8473 120.852Z" fill="#713DFF"/>
<path d="M24.2445 138.489C25.6712 137.475 25.7017 137.21 27.3762 137.712C31.0275 140.435 27.8072 147.871 25.832 150.855C27.716 152.764 29.3392 154.927 32.0432 153.305C32.8215 151.787 27.4975 139.05 35.225 143.254C36.359 147.014 36.478 150.138 34.216 153.522C35.8565 155.502 39.1167 157.763 39.4097 159.282L39.4862 158.997L39.1362 159.254C36.923 158.349 35.0827 156.708 33.5255 154.982C33.38 154.821 32.965 154.666 32.6452 154.784C30.5237 155.572 29.453 155.244 27.607 154.495C25.5055 153.642 25.7505 152.024 24.8863 151.888C23.4521 152.986 20.3661 155.965 18.7852 154.002C19.1221 153.177 19.7039 153.097 20.5748 152.899C22.1761 152.535 23.334 151.481 24.5606 150.467C22.8949 146.909 22.9626 142.195 24.2445 138.489ZM27.3175 139.284L26.599 138.902C24.1851 139.673 24.5956 147.208 25.6425 148.755C27.3622 145.443 27.2292 142.932 27.3175 139.284ZM33.7992 151.639C34.5402 149.799 35.3455 144.823 33.224 143.825C32.5245 145.743 32.1402 149.931 33.4787 151.548L33.7992 151.639Z" fill="#C846F9"/>
<path d="M315.201 220.698C314.611 217.442 314.288 213.597 315.801 210.539C317.051 208.008 320.208 208.119 320.563 211.151C320.983 214.732 318.476 218.167 316.521 220.939C318.258 223.865 319.001 224.854 322.258 225.837C322.006 226.785 322.221 226.541 321.546 226.985C318.236 225.928 316.936 224.771 315.616 221.502C314.123 223.35 310.988 225.862 308.576 225.926L308.398 225.733C309.066 224.389 313.658 221.69 315.201 220.698ZM316.678 218.476C317.826 216.583 320.386 212.03 318.516 210.06L317.808 209.8C316.773 211.2 315.133 217.637 316.476 218.603L316.678 218.476Z" fill="#713DFF"/>
<path d="M325.803 224.397C324.083 221.973 323.071 217.771 323.391 214.799C323.688 212.026 326.743 210.328 328.081 213.105C329.423 215.889 328.151 221.425 326.928 224.089C327.898 225.15 330.861 227.824 330.893 229.03C329.358 228.914 327.198 226.544 326.318 225.292C326.121 224.593 326.301 224.872 325.803 224.397ZM326.626 221.897C326.961 219.553 328.293 213.627 325.223 212.801C324.771 215.198 324.556 219.473 325.926 221.586C326.273 221.792 326.268 221.857 326.626 221.897Z" fill="#713DFF"/>
<path d="M329.769 174.527C330.949 176.062 332.191 177.628 333.276 179.223L333.959 179.963C334.684 180.951 337.649 184.756 338.101 185.548L338.861 186.452C340.349 188.433 342.599 191.24 343.916 193.236L344.546 193.993L349.564 200.587L350.351 201.644L353.724 206.185C353.196 206.191 352.524 206.228 352.019 206.159C346.846 199.725 341.799 192.883 336.754 186.34C335.559 184.791 330.931 178.747 330.154 177.272C330.246 176.311 329.636 175.802 329.769 174.527Z" fill="#16056D"/>
<path d="M227.375 101.887C227.876 101.933 227.712 101.875 228.12 102.147L228.171 102.691C226.984 105.733 215.849 118.626 212.941 121.09C212.492 120.951 212.556 120.932 212.152 120.647C212.155 119.687 225.529 104.171 227.375 101.887Z" fill="#713DFF"/>
<path d="M198.027 92.8711C198.524 93.1791 199.098 93.4491 199.178 94.1208C199.741 98.8576 201.002 114.654 199.123 118.203C198.619 118.019 198.792 118.11 198.385 117.755C198.268 114.043 198.6 111.352 198.633 107.791C198.673 103.452 197.643 97.0786 198.027 92.8711Z" fill="#713DFF"/>
<path d="M346.228 105.914C348.045 106.455 349.03 110.261 349.52 111.941C351.683 119.384 351.968 126.559 350.883 134.206C350.438 134.381 350.673 134.341 350.16 134.212C350.08 134.037 349.92 133.722 349.94 133.525C350.625 126.47 350.41 119.561 348.368 112.727C347.835 110.943 346.173 107.635 346.228 105.914Z" fill="#16056D"/>
<path d="M166.695 100.859C169.335 101.392 180.23 116.982 182.806 119.7C183.139 120.05 183.607 121.148 183.756 121.644C182.357 121.635 180.344 119.062 179.664 117.953C177.728 114.793 167.215 103.61 166.695 100.859Z" fill="#713DFF"/>
<path d="M335.781 102.359C341.729 102.878 346.241 121.757 345.014 127.173L344.639 127.206C343.836 126.419 343.516 120.223 343.244 118.637C342.361 113.514 340.904 109.124 337.461 105.135C336.771 104.338 336.056 103.417 335.781 102.359Z" fill="#16056D"/>
<path d="M353.725 206.182L356.24 209.461L356.875 210.268C358.485 212.413 360.89 215.331 363.025 216.925L363.99 217.46C364.987 218.15 365.297 218.048 366.552 217.934C366.57 218.47 366.642 218.731 366.392 219.193C361.47 219.912 354.66 209.701 352.02 206.156C352.525 206.226 353.197 206.188 353.725 206.182Z" fill="#16056D"/>
<path d="M53.0321 108.383L53.3953 108.786C53.4548 110.051 49.9498 114.691 49.4593 116.619C48.8953 118.836 48.8116 120.44 48.6106 122.692C48.4128 124.909 49.2616 126.89 48.1673 128.229C45.1553 122.848 49.1416 112.665 53.0321 108.383Z" fill="#16056D"/>
<path d="M43.2148 113.155C44.6946 109.362 47.4666 104.251 51.2741 102.332L51.6471 102.404C51.4413 103.963 47.7898 106.735 46.4826 109.117C44.9861 111.843 44.7596 112.219 43.8436 115.279L43.2148 113.155Z" fill="#16056D"/>
<path d="M388.461 193.832L389.393 194.578C388.238 196.673 387.376 197.715 385.698 199.441C384.946 200.269 384.086 201.263 383.313 202.051C382.833 201.652 382.901 201.498 382.641 200.828L384.213 198.86C384.483 198.399 385.286 197.468 385.656 197.008C386.866 195.802 387.438 195.186 388.461 193.832Z" fill="#16056D"/>
<path d="M325.777 168.09C326.759 169.444 327.382 170.981 328.309 172.393L329.159 173.376L329.772 174.525C329.639 175.8 330.249 176.308 330.157 177.269C328.507 175.448 325.744 170.752 324.664 168.634L325.572 168.565L325.777 168.09Z" fill="#16056D"/>
<path d="M43.8433 115.276C43.3783 117.342 43.4578 121.105 42.5141 122.547L42.1936 122.417C41.5976 120.624 42.6428 115.069 43.2146 113.152L43.8433 115.276Z" fill="#16056D"/>
<path d="M325.807 224.398C326.304 224.873 326.124 224.594 326.322 225.293C324.972 226.659 324.422 227.001 322.407 227.003C322.119 227.002 321.834 226.997 321.547 226.988C322.222 226.543 322.007 226.787 322.259 225.839C323.342 225.726 324.987 225.173 325.807 224.398Z" fill="#713DFF"/>
</svg>
